<svg width="189" height="144" viewBox="0 0 189 144" fill="none" xmlns="http://www.w3.org/2000/svg">
<path d="M2.28516 67.7063H11.1328C12.8125 67.7063 14.1016 67.3352 15 66.593C15.9375 65.8117 16.6211 64.9523 17.0508 64.0148C17.5195 62.9211 17.793 61.6711 17.8711 60.2648V39.5813C17.8711 37.1984 18.3203 34.9914 19.2188 32.9602C20.1172 30.8898 21.3281 29.1125 22.8516 27.6281C24.4141 26.1047 26.2109 24.9328 28.2422 24.1125C30.3125 23.2531 32.5 22.8234 34.8047 22.8234H51.6211V39.5813H34.8047V60.6164C34.8047 62.0617 34.668 63.3898 34.3945 64.6008C34.1211 65.8117 33.75 66.925 33.2812 67.9406C32.8125 68.9172 32.2852 69.8156 31.6992 70.6359C31.1133 71.4172 30.5078 72.1008 29.8828 72.6867C28.4375 74.132 26.7969 75.2648 24.9609 76.0852C26.7969 76.8664 28.4375 78.0188 29.8828 79.5422C30.5078 80.2063 31.1133 80.968 31.6992 81.8273C32.2852 82.6867 32.8125 83.6828 33.2812 84.8156C33.75 85.9094 34.1211 87.1594 34.3945 88.5656C34.668 89.9328 34.8047 91.4563 34.8047 93.1359V113.995H51.6211V130.812H34.8047C32.6172 130.812 30.4883 130.382 28.418 129.523C26.3867 128.663 24.5898 127.472 23.0273 125.948C21.4648 124.464 20.2148 122.687 19.2773 120.616C18.3398 118.585 17.8711 116.378 17.8711 113.995V93.1359C17.9102 90.9875 17.5781 89.3273 16.875 88.1555C16.2109 86.9836 15.4492 86.1242 14.5898 85.5773C13.5742 84.9523 12.4219 84.5813 11.1328 84.4641H2.28516V67.7063ZM177.07 84.4641H168.164C166.875 84.5813 165.723 84.9523 164.707 85.5773C164.277 85.8508 163.848 86.2023 163.418 86.632C163.027 87.0227 162.676 87.5305 162.363 88.1555C162.051 88.7414 161.797 89.4445 161.602 90.2648C161.445 91.0852 161.387 92.0422 161.426 93.1359V113.995C161.426 116.378 160.957 118.585 160.02 120.616C159.082 122.687 157.832 124.464 156.27 125.948C154.707 127.472 152.891 128.663 150.82 129.523C148.789 130.382 146.68 130.812 144.492 130.812H127.734V113.995H144.492V93.1359C144.492 91.4563 144.629 89.9328 144.902 88.5656C145.176 87.1594 145.547 85.9094 146.016 84.8156C146.484 83.6828 147.012 82.6867 147.598 81.8273C148.184 80.968 148.789 80.2063 149.414 79.5422C150.859 78.0188 152.5 76.8664 154.336 76.0852C152.5 75.2648 150.859 74.132 149.414 72.6867C148.789 72.1008 148.184 71.4172 147.598 70.6359C147.012 69.8156 146.484 68.9172 146.016 67.9406C145.547 66.925 145.176 65.8117 144.902 64.6008C144.629 63.3898 144.492 62.0617 144.492 60.6164V39.5813H127.734V22.8234H144.492C146.797 22.8234 148.965 23.2531 150.996 24.1125C153.066 24.9328 154.863 26.1047 156.387 27.6281C157.949 29.1125 159.18 30.8898 160.078 32.9602C160.977 34.9914 161.426 37.1984 161.426 39.5813V60.2648C161.504 61.6711 161.777 62.9211 162.246 64.0148C162.676 64.9523 163.34 65.8117 164.238 66.593C165.137 67.3352 166.445 67.7063 168.164 67.7063H177.07V84.4641Z" fill="url(#paint0_linear_2_7)"/>
<path d="M89.5 48L113.316 62.245V90.735L89.5 104.98L65.6843 90.735V62.245L89.5 48Z" fill="url(#paint1_linear_2_7)"/>
<defs>
<linearGradient id="paint0_linear_2_7" x1="2.17402" y1="0.800001" x2="191.458" y2="137.346" gradientUnits="userSpaceOnUse">
<stop stop-color="#55BBFF" stop-opacity="0.733333"/>
<stop offset="1" stop-color="#5A5098"/>
</linearGradient>
<linearGradient id="paint1_linear_2_7" x1="117" y1="62.6673" x2="61.2749" y2="88.7644" gradientUnits="userSpaceOnUse">
<stop stop-color="#5BFBD8" stop-opacity="0.890196"/>
<stop offset="1" stop-color="#008B6E"/>
</linearGradient>
</defs>
</svg>
