<svg width="259" height="259" viewBox="0 0 259 259" fill="none" xmlns="http://www.w3.org/2000/svg">
<rect width="259" height="259" fill="#383838"/>
<path d="M42.2852 120.706H51.1328C52.8125 120.706 54.1016 120.335 55 119.593C55.9375 118.812 56.6211 117.952 57.0508 117.015C57.5195 115.921 57.793 114.671 57.8711 113.265V92.5813C57.8711 90.1984 58.3203 87.9914 59.2188 85.9602C60.1172 83.8898 61.3281 82.1125 62.8516 80.6281C64.4141 79.1047 66.2109 77.9328 68.2422 77.1125C70.3125 76.2531 72.5 75.8234 74.8047 75.8234H91.6211V92.5813H74.8047V113.616C74.8047 115.062 74.668 116.39 74.3945 117.601C74.1211 118.812 73.75 119.925 73.2812 120.941C72.8125 121.917 72.2852 122.816 71.6992 123.636C71.1133 124.417 70.5078 125.101 69.8828 125.687C68.4375 127.132 66.7969 128.265 64.9609 129.085C66.7969 129.866 68.4375 131.019 69.8828 132.542C70.5078 133.206 71.1133 133.968 71.6992 134.827C72.2852 135.687 72.8125 136.683 73.2812 137.816C73.75 138.909 74.1211 140.159 74.3945 141.566C74.668 142.933 74.8047 144.456 74.8047 146.136V166.995H91.6211V183.812H74.8047C72.6172 183.812 70.4883 183.382 68.418 182.523C66.3867 181.663 64.5898 180.472 63.0273 178.948C61.4648 177.464 60.2148 175.687 59.2773 173.616C58.3398 171.585 57.8711 169.378 57.8711 166.995V146.136C57.9102 143.988 57.5781 142.327 56.875 141.155C56.2109 139.984 55.4492 139.124 54.5898 138.577C53.5742 137.952 52.4219 137.581 51.1328 137.464H42.2852V120.706ZM217.07 137.464H208.164C206.875 137.581 205.723 137.952 204.707 138.577C204.277 138.851 203.848 139.202 203.418 139.632C203.027 140.023 202.676 140.53 202.363 141.155C202.051 141.741 201.797 142.445 201.602 143.265C201.445 144.085 201.387 145.042 201.426 146.136V166.995C201.426 169.378 200.957 171.585 200.02 173.616C199.082 175.687 197.832 177.464 196.27 178.948C194.707 180.472 192.891 181.663 190.82 182.523C188.789 183.382 186.68 183.812 184.492 183.812H167.734V166.995H184.492V146.136C184.492 144.456 184.629 142.933 184.902 141.566C185.176 140.159 185.547 138.909 186.016 137.816C186.484 136.683 187.012 135.687 187.598 134.827C188.184 133.968 188.789 133.206 189.414 132.542C190.859 131.019 192.5 129.866 194.336 129.085C192.5 128.265 190.859 127.132 189.414 125.687C188.789 125.101 188.184 124.417 187.598 123.636C187.012 122.816 186.484 121.917 186.016 120.941C185.547 119.925 185.176 118.812 184.902 117.601C184.629 116.39 184.492 115.062 184.492 113.616V92.5813H167.734V75.8234H184.492C186.797 75.8234 188.965 76.2531 190.996 77.1125C193.066 77.9328 194.863 79.1047 196.387 80.6281C197.949 82.1125 199.18 83.8898 200.078 85.9602C200.977 87.9914 201.426 90.1984 201.426 92.5813V113.265C201.504 114.671 201.777 115.921 202.246 117.015C202.676 117.952 203.34 118.812 204.238 119.593C205.137 120.335 206.445 120.706 208.164 120.706H217.07V137.464Z" fill="url(#paint0_linear_2_6)"/>
<path d="M129.5 101L153.316 115.245V143.735L129.5 157.98L105.684 143.735V115.245L129.5 101Z" fill="url(#paint1_linear_2_6)"/>
<defs>
<linearGradient id="paint0_linear_2_6" x1="42.174" y1="53.8" x2="231.458" y2="190.346" gradientUnits="userSpaceOnUse">
<stop stop-color="#55BBFF" stop-opacity="0.733333"/>
<stop offset="1" stop-color="#5A5098"/>
</linearGradient>
<linearGradient id="paint1_linear_2_6" x1="157" y1="115.667" x2="101.275" y2="141.764" gradientUnits="userSpaceOnUse">
<stop stop-color="#5BFBD8" stop-opacity="0.890196"/>
<stop offset="1" stop-color="#008B6E"/>
</linearGradient>
</defs>
</svg>
